<svg width="64" height="64" viewBox="0 0 64 64" fill="none" xmlns="http://www.w3.org/2000/svg">
<path d="M34.666 5.3335H29.3327V16.0002H34.666V5.3335ZM39.9994 21.3335H23.9993V26.6668H18.666V37.3335H23.9993V48.0002H39.9994V37.3335H45.3327V26.6668H39.9994V21.3335ZM39.9994 26.6668V37.3335H34.666V42.6668H29.3327V37.3335H23.9993V26.6668H39.9994ZM23.9993 53.3335H39.9994V58.6668H23.9993V53.3335ZM61.3327 29.3335V34.6668H50.666V29.3335H61.3327ZM13.3327 34.6668V29.3335H2.66602V34.6668H13.3327ZM45.3327 16.0002H50.666V21.3335H45.3327V16.0002ZM50.666 16.0002H55.9994V10.6668H50.666V16.0002ZM13.3327 16.0002H18.666V21.3335H13.3327V16.0002ZM13.3327 16.0002V10.6668H7.99935V16.0002H13.3327Z" fill="currentColor"/>
</svg>
