<svg width="64" height="64" viewBox="0 0 64 64" fill="none" xmlns="http://www.w3.org/2000/svg">
<path d="M29.3333 5.3335H13.3333V10.6668H8V26.6668H13.3333V32.0002H29.3333V26.6668H13.3333V10.6668H29.3333V5.3335ZM29.3333 10.6668H34.6667V26.6668H29.3333V10.6668ZM0 42.6668H5.33333V53.3335H37.3333V58.6668H0V42.6668ZM5.33333 42.6668H37.3333V37.3335H5.33333V42.6668ZM42.6667 42.6668H37.3333V58.6668H42.6667V42.6668ZM40 5.3335H50.6667V10.6668H40V5.3335ZM50.6667 26.6668H40V32.0002H50.6667V26.6668ZM50.6667 10.6668H56V26.6668H50.6667V10.6668ZM64 42.6668H58.6667V53.3335H48V58.6668H64V42.6668ZM48 37.3335H58.6667V42.6668H48V37.3335Z" fill="currentColor"/>
</svg>
