<svg width="32" height="32" viewBox="0 0 32 32" fill="none" xmlns="http://www.w3.org/2000/svg">
<path d="M25.334 2.66675H28.0007V5.33341H25.334V2.66675ZM28.0007 21.3334V5.33341H30.6673V21.3334H28.0007ZM28.0007 21.3334V24.0001H25.334V21.3334H28.0007ZM1.33398 5.33341H4.00065V21.3334H1.33398V5.33341ZM4.00065 21.3334H6.66732V24.0001H4.00065V21.3334ZM4.00065 5.33341H6.66732V2.66675H4.00065V5.33341ZM6.66732 8.00008H9.33398V18.6667H6.66732V8.00008ZM9.33398 18.6667H12.0007V21.3334H9.33398V18.6667ZM9.33398 8.00008H12.0007V5.33341H9.33398V8.00008ZM22.6673 8.00008H25.334V18.6667H22.6673V8.00008ZM22.6673 8.00008H20.0007V5.33341H22.6673V8.00008ZM22.6673 18.6667V21.3334H20.0007V18.6667H22.6673ZM14.6673 9.33341H20.0007V17.3334H17.334V29.3334H14.6673V17.3334H12.0007V9.33341H14.6673ZM14.6673 14.6667H17.334V12.0001H14.6673V14.6667Z" fill="currentColor"/>
</svg>
