<svg width="32" height="32" viewBox="0 0 32 32" fill="none" xmlns="http://www.w3.org/2000/svg">
<path d="M15.9993 1.3335H18.666V12.0002H29.3327V17.3335H26.666V14.6668H15.9993V6.66683H13.3327V4.00016H15.9993V1.3335ZM10.666 9.3335V6.66683H13.3327V9.3335H10.666ZM7.99935 12.0002V9.3335H10.666V12.0002H7.99935ZM5.33268 14.6668V12.0002H7.99935V14.6668H5.33268ZM18.666 25.3335V28.0002H15.9993V30.6668H13.3327V20.0002H2.66602V14.6668H5.33268V17.3335H15.9993V25.3335H18.666ZM21.3327 22.6668V25.3335H18.666V22.6668H21.3327ZM23.9993 20.0002V22.6668H21.3327V20.0002H23.9993ZM23.9993 20.0002H26.666V17.3335H23.9993V20.0002Z" fill="currentColor"/>
</svg>
