<svg width="360" height="133" viewBox="0 0 360 133" fill="none" xmlns="http://www.w3.org/2000/svg">
<path d="M0 129.064V79.6508L122.358 2.0022H200.222V51.4149L77.8643 129.064H0Z" fill="#1C3A19"/>
<path d="M216.641 51.4211V2.1731H262.116V51.4211H249.263V12.6514H229.494V51.4211H216.641Z" fill="#1C3A19"/>
<path d="M268.738 51.4211V2.1731H281.592V21.8723H287.529L285.713 23.1297L298.217 2.1731H312.118L297.169 25.7842L292 22.3613C294.189 22.7338 296.122 23.3858 297.798 24.3172C299.475 25.2486 300.965 26.4594 302.269 27.9497C303.619 29.4399 304.807 31.2562 305.831 33.3984L314.563 51.4211H300.732L294.445 37.5897C293.56 35.6803 292.466 34.3298 291.162 33.5381C289.858 32.7464 288.181 32.3506 286.132 32.3506H281.592V51.4211H268.738Z" fill="#1C3A19"/>
<path d="M339.37 52.4583C332.539 52.4583 323.235 51.1468 316.729 48.6502L319.451 38.9089C324.083 41.096 333.105 41.5626 338.18 41.5626C341.353 41.5626 343.686 41.1056 345.18 40.1916C346.673 39.2295 347.42 37.7623 347.42 35.79C347.42 34.1544 346.86 32.9518 345.74 32.1821C344.666 31.3643 342.94 30.9554 340.56 30.9554H327.812V20.7813H339.23C341.61 20.7813 343.336 20.3964 344.41 19.6268C345.483 18.8571 346.02 17.6545 346.02 16.0189C346.02 14.4795 345.413 13.2529 344.2 12.3389C343.033 11.3768 341.096 10.8957 338.39 10.8957C333.838 10.8957 325.354 11.3806 320.431 13.4772L317.639 3.73598C324.569 0.89276 333.399 0 340 0C344.153 0 347.606 0.601309 350.36 1.80393C353.16 3.00655 355.236 4.66617 356.59 6.78278C357.943 8.89939 358.62 11.2806 358.62 13.9263C358.62 16.9088 357.78 19.4584 356.1 21.575C354.466 23.6916 352.226 25.1348 349.38 25.9044V24.7499C352.74 25.3753 355.33 26.7703 357.15 28.935C358.97 31.0998 359.88 33.8658 359.88 37.2331C359.88 40.1675 359.133 42.7892 357.64 45.0983C356.193 47.4073 353.953 49.2112 350.92 50.51C347.886 51.8089 344.036 52.4583 339.37 52.4583Z" fill="#1C3A19"/>
<path d="M295.818 128.943V120.513H297.255V127.403H296.805L301.981 120.513H303.296V128.943H301.877V122.037H302.327L297.151 128.943H295.818Z" fill="#1C3A19"/>
<path d="M284.307 128.943V120.513H285.605L288.721 126.001L291.819 120.513H293.117V128.943H291.715V122.331H292.113L289.102 127.576H288.323L285.311 122.331H285.691V128.943H284.307Z" fill="#1C3A19"/>
<path d="M277.574 129.099C276.997 129.099 276.472 128.984 275.999 128.753C275.537 128.522 275.174 128.21 274.908 127.818C274.654 127.426 274.527 126.987 274.527 126.502C274.527 125.879 274.683 125.389 274.995 125.031C275.306 124.673 275.831 124.42 276.57 124.269C277.308 124.108 278.301 124.027 279.547 124.027H280.361V125.031H279.582C278.913 125.031 278.353 125.054 277.903 125.1C277.453 125.147 277.095 125.222 276.83 125.325C276.564 125.429 276.374 125.574 276.258 125.758C276.143 125.931 276.085 126.151 276.085 126.416C276.085 126.866 276.241 127.235 276.553 127.524C276.876 127.812 277.314 127.957 277.868 127.957C278.307 127.957 278.693 127.853 279.028 127.645C279.363 127.426 279.628 127.137 279.824 126.779C280.02 126.41 280.118 125.989 280.118 125.516V123.525C280.118 122.844 279.98 122.354 279.703 122.054C279.426 121.742 278.959 121.586 278.301 121.586C277.816 121.586 277.332 121.661 276.847 121.811C276.374 121.961 275.883 122.192 275.376 122.504L274.874 121.379C275.174 121.171 275.514 120.992 275.895 120.842C276.287 120.681 276.691 120.559 277.107 120.479C277.534 120.398 277.943 120.357 278.336 120.357C279.086 120.357 279.703 120.479 280.188 120.721C280.672 120.952 281.036 121.315 281.278 121.811C281.521 122.296 281.642 122.919 281.642 123.681V128.943H280.153V127.022H280.309C280.217 127.449 280.043 127.818 279.79 128.13C279.536 128.441 279.218 128.684 278.838 128.857C278.468 129.018 278.047 129.099 277.574 129.099Z" fill="#1C3A19"/>
<path d="M268.863 128.943V121.777H265.834V120.513H273.468V121.777H270.438V128.943H268.863Z" fill="#1C3A19"/>
<path d="M257.852 128.943V120.513H259.427V123.975H260.915L263.616 120.513H265.329L262.179 124.633L261.781 124.149C262.093 124.183 262.369 124.264 262.612 124.391C262.854 124.518 263.085 124.708 263.304 124.962C263.523 125.216 263.76 125.556 264.014 125.983L265.745 128.943H264.049L262.56 126.416C262.375 126.093 262.196 125.851 262.023 125.689C261.85 125.516 261.66 125.395 261.452 125.326C261.244 125.256 260.99 125.222 260.69 125.222H259.427V128.943H257.852Z" fill="#1C3A19"/>
<path d="M252.313 129.099C251.401 129.099 250.616 128.926 249.959 128.58C249.312 128.222 248.81 127.72 248.453 127.074C248.095 126.416 247.916 125.643 247.916 124.754C247.916 123.877 248.089 123.11 248.435 122.452C248.793 121.794 249.278 121.281 249.889 120.911C250.513 120.542 251.222 120.357 252.018 120.357C252.792 120.357 253.449 120.525 253.992 120.859C254.546 121.194 254.967 121.673 255.255 122.296C255.556 122.908 255.706 123.646 255.706 124.512V125.083H249.145V124.079H254.667L254.373 124.321C254.373 123.421 254.176 122.729 253.784 122.244C253.392 121.748 252.815 121.5 252.053 121.5C251.499 121.5 251.026 121.633 250.634 121.898C250.241 122.152 249.941 122.515 249.734 122.989C249.526 123.45 249.422 123.987 249.422 124.598V124.702C249.422 125.395 249.532 125.977 249.751 126.451C249.982 126.912 250.311 127.264 250.738 127.506C251.165 127.737 251.69 127.853 252.313 127.853C252.809 127.853 253.288 127.778 253.749 127.628C254.223 127.466 254.667 127.218 255.082 126.883L255.567 127.974C255.186 128.32 254.696 128.597 254.096 128.805C253.507 129.001 252.913 129.099 252.313 129.099Z" fill="#1C3A19"/>
<path d="M242.113 129.099C241.282 129.099 240.56 128.92 239.949 128.562C239.337 128.205 238.864 127.697 238.529 127.039C238.195 126.381 238.027 125.608 238.027 124.72C238.027 123.831 238.195 123.064 238.529 122.417C238.864 121.76 239.337 121.252 239.949 120.894C240.56 120.536 241.282 120.357 242.113 120.357C242.943 120.357 243.665 120.536 244.276 120.894C244.888 121.252 245.361 121.76 245.696 122.417C246.03 123.064 246.198 123.831 246.198 124.72C246.198 125.608 246.03 126.381 245.696 127.039C245.361 127.697 244.888 128.205 244.276 128.562C243.665 128.92 242.943 129.099 242.113 129.099ZM242.113 127.853C242.874 127.853 243.48 127.587 243.93 127.056C244.38 126.514 244.605 125.735 244.605 124.72C244.605 123.704 244.38 122.931 243.93 122.4C243.48 121.869 242.874 121.604 242.113 121.604C241.362 121.604 240.757 121.869 240.295 122.4C239.845 122.931 239.62 123.704 239.62 124.72C239.62 125.735 239.845 126.514 240.295 127.056C240.757 127.587 241.362 127.853 242.113 127.853Z" fill="#1C3A19"/>
<path d="M228.184 132.059V120.513H229.724V122.452H229.551C229.736 121.817 230.099 121.309 230.642 120.929C231.184 120.548 231.836 120.357 232.598 120.357C233.348 120.357 234 120.536 234.554 120.894C235.108 121.24 235.54 121.742 235.852 122.4C236.164 123.046 236.319 123.819 236.319 124.72C236.319 125.608 236.164 126.387 235.852 127.056C235.552 127.714 235.119 128.222 234.554 128.58C234 128.926 233.348 129.099 232.598 129.099C231.848 129.099 231.201 128.909 230.659 128.528C230.117 128.147 229.753 127.645 229.568 127.022H229.759V132.059H228.184ZM232.234 127.853C232.996 127.853 233.602 127.587 234.052 127.056C234.502 126.514 234.727 125.735 234.727 124.72C234.727 123.704 234.502 122.931 234.052 122.4C233.602 121.869 232.996 121.604 232.234 121.604C231.473 121.604 230.867 121.869 230.417 122.4C229.967 122.931 229.741 123.704 229.741 124.72C229.741 125.735 229.967 126.514 230.417 127.056C230.867 127.587 231.473 127.853 232.234 127.853Z" fill="#1C3A19"/>
<path d="M217.99 128.943V120.513H225.485V128.943H223.91V121.777H219.565V128.943H217.99Z" fill="#1C3A19"/>
<path d="M350.977 111.724V103.294H352.413V110.184H351.963L357.139 103.294H358.454V111.724H357.035V104.817H357.485L352.309 111.724H350.977Z" fill="#1C3A19"/>
<path d="M339.465 111.724V103.294H340.763L343.879 108.781L346.977 103.294H348.276V111.724H346.874V105.112H347.272L344.26 110.357H343.481L340.469 105.112H340.85V111.724H339.465Z" fill="#1C3A19"/>
<path d="M326.652 111.724V103.294H328.228V106.254H330.703C331.788 106.254 332.607 106.491 333.161 106.964C333.715 107.426 333.992 108.095 333.992 108.972C333.992 109.526 333.859 110.01 333.594 110.426C333.34 110.841 332.965 111.164 332.469 111.395C331.984 111.615 331.395 111.724 330.703 111.724H326.652ZM328.228 110.634H330.512C331.147 110.634 331.638 110.501 331.984 110.236C332.33 109.959 332.503 109.537 332.503 108.972C332.503 108.418 332.33 108.008 331.984 107.743C331.638 107.477 331.147 107.345 330.512 107.345H328.228V110.634ZM335.186 111.724V103.294H336.761V111.724H335.186Z" fill="#1C3A19"/>
<path d="M316.408 111.724V103.294H317.983V106.756H322.38V103.294H323.955V111.724H322.38V108.02H317.983V111.724H316.408Z" fill="#1C3A19"/>
<path d="M306.164 111.724V103.294H307.739V106.756H312.136V103.294H313.711V111.724H312.136V108.02H307.739V111.724H306.164Z" fill="#1C3A19"/>
<path d="M300.625 111.88C299.714 111.88 298.929 111.707 298.271 111.361C297.625 111.003 297.123 110.501 296.765 109.855C296.407 109.197 296.229 108.424 296.229 107.535C296.229 106.658 296.402 105.891 296.748 105.233C297.106 104.575 297.59 104.062 298.202 103.692C298.825 103.323 299.535 103.138 300.331 103.138C301.104 103.138 301.762 103.306 302.304 103.64C302.858 103.975 303.279 104.454 303.568 105.077C303.868 105.689 304.018 106.427 304.018 107.293V107.864H297.458V106.86H302.979L302.685 107.102C302.685 106.202 302.489 105.51 302.097 105.025C301.704 104.529 301.127 104.281 300.366 104.281C299.812 104.281 299.339 104.414 298.946 104.679C298.554 104.933 298.254 105.296 298.046 105.77C297.838 106.231 297.734 106.768 297.734 107.379V107.483C297.734 108.176 297.844 108.758 298.063 109.232C298.294 109.693 298.623 110.045 299.05 110.287C299.477 110.518 300.002 110.634 300.625 110.634C301.121 110.634 301.6 110.559 302.062 110.409C302.535 110.247 302.979 109.999 303.395 109.664L303.88 110.755C303.499 111.101 303.008 111.378 302.408 111.586C301.82 111.782 301.225 111.88 300.625 111.88Z" fill="#1C3A19"/>
<path d="M286.29 111.932L285.736 110.686C286.129 110.524 286.452 110.322 286.706 110.08C286.971 109.826 287.179 109.503 287.329 109.11C287.479 108.718 287.589 108.233 287.658 107.656C287.727 107.079 287.762 106.381 287.762 105.562V103.294H294.028V111.724H292.453V104.558H289.233V105.596C289.233 106.566 289.175 107.414 289.06 108.141C288.956 108.856 288.789 109.462 288.558 109.959C288.327 110.455 288.021 110.864 287.64 111.188C287.271 111.511 286.821 111.759 286.29 111.932Z" fill="#1C3A19"/>
<path d="M272.744 111.724V103.294H274.25V110.461H277.626V103.294H279.132V110.461H282.507V103.294H284.013V111.724H272.744Z" fill="#1C3A19"/>
<path d="M259.93 111.724V103.294H261.505V106.254H263.98C265.065 106.254 265.884 106.491 266.438 106.964C266.992 107.426 267.269 108.095 267.269 108.972C267.269 109.526 267.136 110.01 266.871 110.426C266.617 110.841 266.242 111.164 265.746 111.395C265.261 111.615 264.673 111.724 263.98 111.724H259.93ZM261.505 110.634H263.79C264.425 110.634 264.915 110.501 265.261 110.236C265.607 109.959 265.78 109.537 265.78 108.972C265.78 108.418 265.607 108.008 265.261 107.743C264.915 107.477 264.425 107.345 263.79 107.345H261.505V110.634ZM268.464 111.724V103.294H270.039V111.724H268.464Z" fill="#1C3A19"/>
<path d="M248.418 111.724V103.294H249.716L252.832 108.781L255.931 103.294H257.229V111.724H255.827V105.112H256.225L253.213 110.357H252.434L249.422 105.112H249.803V111.724H248.418Z" fill="#1C3A19"/>
<path d="M242.113 111.88C241.282 111.88 240.56 111.701 239.949 111.343C239.337 110.986 238.864 110.478 238.529 109.82C238.195 109.162 238.027 108.389 238.027 107.501C238.027 106.612 238.195 105.845 238.529 105.198C238.864 104.541 239.337 104.033 239.949 103.675C240.56 103.317 241.282 103.138 242.113 103.138C242.943 103.138 243.665 103.317 244.276 103.675C244.888 104.033 245.361 104.541 245.696 105.198C246.03 105.845 246.198 106.612 246.198 107.501C246.198 108.389 246.03 109.162 245.696 109.82C245.361 110.478 244.888 110.986 244.276 111.343C243.665 111.701 242.943 111.88 242.113 111.88ZM242.113 110.634C242.874 110.634 243.48 110.368 243.93 109.837C244.38 109.295 244.605 108.516 244.605 107.501C244.605 106.485 244.38 105.712 243.93 105.181C243.48 104.65 242.874 104.385 242.113 104.385C241.362 104.385 240.757 104.65 240.295 105.181C239.845 105.712 239.62 106.485 239.62 107.501C239.62 108.516 239.845 109.295 240.295 109.837C240.757 110.368 241.362 110.634 242.113 110.634Z" fill="#1C3A19"/>
<path d="M228.184 114.84V103.294H229.724V105.233H229.551C229.736 104.598 230.099 104.09 230.642 103.71C231.184 103.329 231.836 103.138 232.598 103.138C233.348 103.138 234 103.317 234.554 103.675C235.108 104.021 235.54 104.523 235.852 105.181C236.164 105.827 236.319 106.6 236.319 107.501C236.319 108.389 236.164 109.168 235.852 109.837C235.552 110.495 235.119 111.003 234.554 111.361C234 111.707 233.348 111.88 232.598 111.88C231.848 111.88 231.201 111.69 230.659 111.309C230.117 110.928 229.753 110.426 229.568 109.803H229.759V114.84H228.184ZM232.234 110.634C232.996 110.634 233.602 110.368 234.052 109.837C234.502 109.295 234.727 108.516 234.727 107.501C234.727 106.485 234.502 105.712 234.052 105.181C233.602 104.65 232.996 104.385 232.234 104.385C231.473 104.385 230.867 104.65 230.417 105.181C229.967 105.712 229.741 106.485 229.741 107.501C229.741 108.516 229.967 109.295 230.417 109.837C230.867 110.368 231.473 110.634 232.234 110.634Z" fill="#1C3A19"/>
<path d="M217.99 111.724V103.294H225.485V111.724H223.91V104.558H219.565V111.724H217.99Z" fill="#1C3A19"/>
<path d="M310.412 94.6608C309.501 94.6608 308.716 94.4877 308.058 94.1415C307.412 93.7837 306.91 93.2817 306.552 92.6355C306.194 91.9777 306.016 91.2045 306.016 90.3159C306.016 89.4389 306.189 88.6715 306.535 88.0137C306.893 87.3559 307.377 86.8424 307.989 86.4731C308.612 86.1038 309.322 85.9192 310.118 85.9192C310.891 85.9192 311.549 86.0865 312.091 86.4212C312.645 86.7558 313.067 87.2348 313.355 87.8579C313.655 88.4695 313.805 89.2081 313.805 90.0736V90.6448H307.245V89.6408H312.767L312.472 89.8832C312.472 88.9831 312.276 88.2907 311.884 87.806C311.491 87.3098 310.914 87.0617 310.153 87.0617C309.599 87.0617 309.126 87.1944 308.733 87.4598C308.341 87.7137 308.041 88.0772 307.833 88.5503C307.625 89.0119 307.522 89.5485 307.522 90.1601V90.264C307.522 90.9564 307.631 91.5392 307.85 92.0123C308.081 92.4739 308.41 92.8259 308.837 93.0682C309.264 93.299 309.789 93.4144 310.412 93.4144C310.909 93.4144 311.388 93.3394 311.849 93.1894C312.322 93.0278 312.767 92.7797 313.182 92.4451L313.667 93.5356C313.286 93.8818 312.795 94.1588 312.195 94.3665C311.607 94.5627 311.012 94.6608 310.412 94.6608Z" fill="#1C3A19"/>
<path d="M296.342 94.5049V86.075H297.779V92.9643H297.328L302.504 86.075H303.82V94.5049H302.4V87.5982H302.85L297.675 94.5049H296.342Z" fill="#1C3A19"/>
<path d="M286.098 94.5049V86.075H287.673V89.537H292.07V86.075H293.645V94.5049H292.07V90.8006H287.673V94.5049H286.098Z" fill="#1C3A19"/>
<path d="M280.561 94.6608C279.649 94.6608 278.864 94.4877 278.207 94.1415C277.56 93.7837 277.058 93.2817 276.701 92.6355C276.343 91.9777 276.164 91.2045 276.164 90.3159C276.164 89.4389 276.337 88.6715 276.683 88.0137C277.041 87.3559 277.526 86.8424 278.137 86.4731C278.761 86.1038 279.47 85.9192 280.267 85.9192C281.04 85.9192 281.698 86.0865 282.24 86.4212C282.794 86.7558 283.215 87.2348 283.504 87.8579C283.804 88.4695 283.954 89.2081 283.954 90.0736V90.6448H277.393V89.6408H282.915L282.621 89.8832C282.621 88.9831 282.425 88.2907 282.032 87.806C281.64 87.3098 281.063 87.0617 280.301 87.0617C279.747 87.0617 279.274 87.1944 278.882 87.4598C278.489 87.7137 278.189 88.0772 277.982 88.5503C277.774 89.0119 277.67 89.5485 277.67 90.1601V90.264C277.67 90.9564 277.78 91.5392 277.999 92.0123C278.23 92.4739 278.559 92.8259 278.986 93.0682C279.413 93.299 279.938 93.4144 280.561 93.4144C281.057 93.4144 281.536 93.3394 281.998 93.1894C282.471 93.0278 282.915 92.7797 283.33 92.4451L283.815 93.5356C283.434 93.8818 282.944 94.1588 282.344 94.3665C281.755 94.5627 281.161 94.6608 280.561 94.6608Z" fill="#1C3A19"/>
<path d="M266.226 94.7127L265.672 93.4663C266.064 93.3048 266.387 93.1028 266.641 92.8605C266.907 92.6066 267.114 92.2835 267.264 91.8911C267.414 91.4988 267.524 91.0141 267.593 90.4371C267.663 89.8601 267.697 89.1619 267.697 88.3426V86.075H273.963V94.5049H272.388V87.3386H269.169V88.3772C269.169 89.3465 269.111 90.1947 268.995 90.9218C268.892 91.6372 268.724 92.2431 268.493 92.7393C268.263 93.2355 267.957 93.6452 267.576 93.9683C267.207 94.2914 266.757 94.5396 266.226 94.7127Z" fill="#1C3A19"/>
<path d="M257.09 94.5049V86.075H261.296C261.977 86.075 262.531 86.1615 262.958 86.3346C263.396 86.5077 263.72 86.7558 263.927 87.0789C264.135 87.4021 264.239 87.806 264.239 88.2906C264.239 88.8215 264.054 89.2715 263.685 89.6408C263.316 90.0101 262.831 90.2294 262.231 90.2986V90.0736C262.716 90.0851 263.125 90.1832 263.46 90.3678C263.806 90.5525 264.066 90.8006 264.239 91.1122C264.424 91.4122 264.516 91.7642 264.516 92.1681C264.516 92.8836 264.25 93.4548 263.72 93.8818C263.189 94.2972 262.427 94.5049 261.435 94.5049H257.09ZM258.579 93.4663H261.348C261.902 93.4663 262.323 93.3509 262.612 93.1201C262.912 92.8778 263.062 92.5374 263.062 92.0988C263.062 91.6488 262.912 91.3084 262.612 91.0776C262.323 90.8468 261.902 90.7314 261.348 90.7314H258.579V93.4663ZM258.579 89.6927H261.21C261.706 89.6927 262.087 89.5773 262.352 89.3465C262.629 89.1157 262.768 88.7984 262.768 88.3945C262.768 87.9791 262.629 87.6617 262.352 87.4424C262.087 87.2232 261.706 87.1136 261.21 87.1136H258.579V89.6927Z" fill="#1C3A19"/>
<path d="M250.357 94.6608C249.78 94.6608 249.255 94.5454 248.782 94.3146C248.32 94.0838 247.957 93.7722 247.691 93.3798C247.437 92.9875 247.311 92.5489 247.311 92.0643C247.311 91.4411 247.466 90.9506 247.778 90.5929C248.089 90.2352 248.615 89.9813 249.353 89.8313C250.092 89.6697 251.084 89.5889 252.33 89.5889H253.144V90.5929H252.365C251.696 90.5929 251.136 90.616 250.686 90.6621C250.236 90.7083 249.878 90.7833 249.613 90.8872C249.347 90.991 249.157 91.1353 249.042 91.3199C248.926 91.493 248.868 91.7123 248.868 91.9777C248.868 92.4278 249.024 92.797 249.336 93.0855C249.659 93.374 250.097 93.5183 250.651 93.5183C251.09 93.5183 251.476 93.4144 251.811 93.2067C252.146 92.9875 252.411 92.699 252.607 92.3412C252.804 91.9719 252.902 91.5507 252.902 91.0776V89.0869C252.902 88.4061 252.763 87.9156 252.486 87.6156C252.209 87.304 251.742 87.1482 251.084 87.1482C250.599 87.1482 250.115 87.2232 249.63 87.3732C249.157 87.5233 248.667 87.7541 248.159 88.0656L247.657 86.9405C247.957 86.7328 248.297 86.5539 248.678 86.4039C249.07 86.2423 249.474 86.1211 249.89 86.0404C250.317 85.9596 250.726 85.9192 251.119 85.9192C251.869 85.9192 252.486 86.0404 252.971 86.2827C253.456 86.5135 253.819 86.877 254.061 87.3732C254.304 87.8579 254.425 88.4811 254.425 89.2427V94.505H252.936V92.5836H253.092C253 93.0105 252.827 93.3798 252.573 93.6914C252.319 94.003 252.002 94.2453 251.621 94.4184C251.251 94.58 250.83 94.6608 250.357 94.6608Z" fill="#1C3A19"/>
<path d="M237.328 97.6208V86.075H238.869V88.0137H238.696C238.88 87.379 239.244 86.8712 239.786 86.4904C240.329 86.1096 240.981 85.9192 241.742 85.9192C242.492 85.9192 243.144 86.0981 243.698 86.4558C244.252 86.802 244.685 87.304 244.996 87.9618C245.308 88.608 245.464 89.3812 245.464 90.2813C245.464 91.1699 245.308 91.9489 244.996 92.6182C244.696 93.276 244.264 93.7837 243.698 94.1415C243.144 94.4877 242.492 94.6608 241.742 94.6608C240.992 94.6608 240.346 94.4703 239.803 94.0895C239.261 93.7087 238.898 93.2067 238.713 92.5836H238.903V97.6208H237.328ZM241.379 93.4144C242.14 93.4144 242.746 93.149 243.196 92.6182C243.646 92.0758 243.871 91.2968 243.871 90.2813C243.871 89.2658 243.646 88.4926 243.196 87.9618C242.746 87.4309 242.14 87.1655 241.379 87.1655C240.617 87.1655 240.011 87.4309 239.561 87.9618C239.111 88.4926 238.886 89.2658 238.886 90.2813C238.886 91.2968 239.111 92.0758 239.561 92.6182C240.011 93.149 240.617 93.4144 241.379 93.4144Z" fill="#1C3A19"/>
<path d="M227.135 94.5049V86.075H234.63V94.5049H233.055V87.3386H228.71V94.5049H227.135Z" fill="#1C3A19"/>
<path d="M218.925 97.6207L220.535 94.0029V94.6607L216.848 86.075H218.544L221.469 93.2759H220.985L223.962 86.075H225.589L220.569 97.6207H218.925Z" fill="#1C3A19"/>
</svg>
