<svg width="227" height="33" viewBox="0 0 227 33" fill="none" xmlns="http://www.w3.org/2000/svg">
<path d="M0 29.808V19.324L26.0089 2.84912H42.5601V13.3331L16.5511 29.808H0Z" fill="currentColor"/>
<path d="M51.6016 29.8981V2.94287H76.5381V29.8981H69.49V8.67802H58.6497V29.8981H51.6016Z" fill="currentColor"/>
<path d="M80.1699 29.8981V2.94287H87.218V13.725H90.4739L89.478 14.4132L96.3346 2.94287H103.957L95.76 15.8661L92.9255 13.9926C94.1257 14.1965 95.1855 14.5534 96.1048 15.0632C97.0241 15.5729 97.8413 16.2357 98.5563 17.0513C99.2968 17.867 99.948 18.8611 100.51 20.0336L105.298 29.8981H97.7136L94.2661 22.3277C93.7809 21.2826 93.1808 20.5434 92.4658 20.1101C91.7508 19.6768 90.8315 19.4601 89.7078 19.4601H87.218V29.8981H80.1699Z" fill="currentColor"/>
<path d="M118.9 30.4657C115.154 30.4657 110.052 29.7479 106.484 28.3814L107.977 23.0497C110.517 24.2467 115.464 24.5021 118.247 24.5021C119.987 24.5021 121.267 24.252 122.086 23.7517C122.904 23.2251 123.314 22.4221 123.314 21.3426C123.314 20.4474 123.007 19.7891 122.393 19.3679C121.804 18.9203 120.857 18.6965 119.552 18.6965H112.562V13.1278H118.823C120.128 13.1278 121.075 12.9171 121.663 12.4959C122.252 12.0746 122.546 11.4163 122.546 10.5211C122.546 9.6786 122.213 9.0072 121.548 8.50694C120.908 7.98035 119.846 7.71705 118.362 7.71705C115.867 7.71705 111.214 7.98241 108.514 9.12998L106.983 3.79826C110.783 2.24206 115.626 1.75342 119.245 1.75342C121.523 1.75342 123.416 2.08254 124.926 2.74077C126.461 3.39901 127.6 4.30738 128.342 5.46588C129.084 6.62438 129.455 7.92769 129.455 9.37581C129.455 11.0082 128.995 12.4037 128.073 13.5622C127.178 14.7207 125.95 15.5106 124.389 15.9319V15.2999C126.231 15.6422 127.651 16.4058 128.649 17.5906C129.647 18.7754 130.146 20.2894 130.146 22.1325C130.146 23.7386 129.737 25.1735 128.918 26.4373C128.125 27.7011 126.896 28.6885 125.233 29.3994C123.57 30.1103 121.459 30.4657 118.9 30.4657Z" fill="currentColor"/>
<path d="M187.109 30.4657V25.2358H188.002V29.5099H187.723L190.939 25.2358H191.757V30.4657H190.875V26.1809H191.155L187.938 30.4657H187.109Z" fill="currentColor"/>
<path d="M179.953 30.4657V25.2358H180.76L182.697 28.6401L184.622 25.2358H185.429V30.4657H184.558V26.3634H184.805L182.933 29.6173H182.449L180.577 26.3634H180.814V30.4657H179.953Z" fill="currentColor"/>
<path d="M175.77 30.5623C175.412 30.5623 175.086 30.4907 174.791 30.3475C174.505 30.2043 174.279 30.011 174.114 29.7676C173.956 29.5242 173.877 29.2521 173.877 28.9515C173.877 28.5649 173.974 28.2606 174.167 28.0387C174.361 27.8167 174.687 27.6592 175.146 27.5661C175.606 27.4659 176.222 27.4158 176.997 27.4158H177.503V28.0387H177.018C176.602 28.0387 176.255 28.053 175.975 28.0816C175.695 28.1102 175.473 28.1568 175.308 28.2212C175.143 28.2856 175.025 28.3751 174.953 28.4897C174.881 28.5971 174.845 28.7331 174.845 28.8978C174.845 29.177 174.942 29.4061 175.136 29.5851C175.337 29.764 175.609 29.8535 175.953 29.8535C176.226 29.8535 176.466 29.7891 176.674 29.6602C176.882 29.5242 177.047 29.3452 177.169 29.1233C177.291 28.8942 177.352 28.6329 177.352 28.3393V27.1044C177.352 26.682 177.266 26.3777 177.094 26.1916C176.922 25.9983 176.631 25.9016 176.222 25.9016C175.921 25.9016 175.62 25.9482 175.319 26.0412C175.025 26.1343 174.72 26.2775 174.404 26.4708L174.092 25.7728C174.279 25.6439 174.49 25.5329 174.727 25.4398C174.971 25.3396 175.222 25.2644 175.48 25.2143C175.745 25.1642 176 25.1392 176.244 25.1392C176.71 25.1392 177.094 25.2143 177.395 25.3647C177.696 25.5079 177.922 25.7334 178.073 26.0412C178.223 26.3419 178.299 26.7285 178.299 27.201V30.4656H177.374V29.2736H177.47C177.413 29.5385 177.305 29.7676 177.148 29.9609C176.99 30.1542 176.793 30.3046 176.556 30.4119C176.326 30.5122 176.065 30.5623 175.77 30.5623Z" fill="currentColor"/>
<path d="M170.355 30.4657V26.0198H168.473V25.2358H173.217V26.0198H171.334V30.4657H170.355Z" fill="currentColor"/>
<path d="M163.512 30.4657V25.2358H164.491V27.3836H165.416L167.094 25.2358H168.159L166.201 27.7917L165.954 27.491C166.148 27.5125 166.32 27.5626 166.47 27.6413C166.621 27.7201 166.764 27.8382 166.901 27.9957C167.037 28.1532 167.184 28.3644 167.342 28.6293L168.418 30.4657H167.363L166.438 28.8978C166.323 28.6973 166.212 28.547 166.105 28.4468C165.997 28.3394 165.879 28.2642 165.75 28.2212C165.62 28.1783 165.463 28.1568 165.276 28.1568H164.491V30.4657H163.512Z" fill="currentColor"/>
<path d="M160.069 30.5623C159.502 30.5623 159.014 30.4549 158.605 30.2401C158.204 30.0182 157.892 29.7068 157.669 29.3058C157.447 28.8978 157.336 28.4181 157.336 27.8668C157.336 27.3227 157.444 26.8466 157.659 26.4386C157.881 26.0305 158.182 25.7119 158.562 25.4828C158.95 25.2537 159.391 25.1392 159.886 25.1392C160.366 25.1392 160.775 25.243 161.112 25.4506C161.457 25.6582 161.718 25.9553 161.898 26.3419C162.084 26.7214 162.177 27.1795 162.177 27.7165V28.0709H158.1V27.448H161.532L161.349 27.5984C161.349 27.0399 161.227 26.6104 160.983 26.3097C160.739 26.0018 160.381 25.8479 159.907 25.8479C159.563 25.8479 159.269 25.9303 159.025 26.0949C158.781 26.2524 158.595 26.4779 158.466 26.7715C158.336 27.0578 158.272 27.3907 158.272 27.7702V27.8346C158.272 28.2642 158.34 28.6257 158.476 28.9192C158.62 29.2056 158.824 29.424 159.09 29.5743C159.355 29.7175 159.681 29.7891 160.069 29.7891C160.377 29.7891 160.675 29.7426 160.962 29.6495C161.256 29.5493 161.532 29.3953 161.79 29.1877L162.091 29.8643C161.855 30.079 161.55 30.2509 161.177 30.3797C160.811 30.5014 160.442 30.5623 160.069 30.5623Z" fill="currentColor"/>
<path d="M153.729 30.5623C153.212 30.5623 152.764 30.4513 152.384 30.2294C152.004 30.0075 151.709 29.6924 151.501 29.2844C151.293 28.8763 151.189 28.3966 151.189 27.8454C151.189 27.2941 151.293 26.818 151.501 26.4171C151.709 26.009 152.004 25.694 152.384 25.4721C152.764 25.2501 153.212 25.1392 153.729 25.1392C154.245 25.1392 154.693 25.2501 155.073 25.4721C155.453 25.694 155.748 26.009 155.956 26.4171C156.164 26.818 156.268 27.2941 156.268 27.8454C156.268 28.3966 156.164 28.8763 155.956 29.2844C155.748 29.6924 155.453 30.0075 155.073 30.2294C154.693 30.4513 154.245 30.5623 153.729 30.5623ZM153.729 29.7891C154.202 29.7891 154.578 29.6244 154.858 29.2951C155.138 28.9586 155.278 28.4754 155.278 27.8454C155.278 27.2153 155.138 26.7357 154.858 26.4063C154.578 26.077 154.202 25.9124 153.729 25.9124C153.262 25.9124 152.886 26.077 152.599 26.4063C152.319 26.7357 152.179 27.2153 152.179 27.8454C152.179 28.4754 152.319 28.9586 152.599 29.2951C152.886 29.6244 153.262 29.7891 153.729 29.7891Z" fill="currentColor"/>
<path d="M145.072 32.3986V25.2358H146.03V26.4386H145.922C146.037 26.0448 146.263 25.7298 146.6 25.4935C146.937 25.2573 147.342 25.1392 147.816 25.1392C148.282 25.1392 148.687 25.2501 149.031 25.4721C149.376 25.6868 149.645 25.9983 149.838 26.4063C150.032 26.8073 150.129 27.2869 150.129 27.8454C150.129 28.3966 150.032 28.8799 149.838 29.2951C149.652 29.7032 149.383 30.0182 149.031 30.2401C148.687 30.4549 148.282 30.5623 147.816 30.5623C147.35 30.5623 146.948 30.4442 146.611 30.2079C146.274 29.9717 146.048 29.6602 145.933 29.2736H146.051V32.3986H145.072ZM147.59 29.7891C148.063 29.7891 148.44 29.6244 148.719 29.2951C148.999 28.9586 149.139 28.4754 149.139 27.8454C149.139 27.2153 148.999 26.7357 148.719 26.4063C148.44 26.077 148.063 25.9124 147.59 25.9124C147.116 25.9124 146.74 26.077 146.46 26.4063C146.18 26.7357 146.041 27.2153 146.041 27.8454C146.041 28.4754 146.18 28.9586 146.46 29.2951C146.74 29.6244 147.116 29.7891 147.59 29.7891Z" fill="currentColor"/>
<path d="M138.736 30.4657V25.2358H143.395V30.4657H142.416V26.0198H139.715V30.4657H138.736Z" fill="currentColor"/>
<path d="M221.393 19.7259V14.4961H222.286V18.7702H222.006L225.223 14.4961H226.04V19.7259H225.158V15.4411H225.438L222.221 19.7259H221.393Z" fill="currentColor"/>
<path d="M214.236 19.7259V14.4961H215.043L216.98 17.9003L218.906 14.4961H219.713V19.7259H218.841V15.6237H219.089L217.216 18.8776H216.732L214.86 15.6237H215.097V19.7259H214.236Z" fill="currentColor"/>
<path d="M206.273 19.7259V14.4961H207.252V16.3324H208.791C209.465 16.3324 209.974 16.4792 210.319 16.7727C210.663 17.0591 210.835 17.4743 210.835 18.0184C210.835 18.3621 210.753 18.6628 210.588 18.9205C210.43 19.1782 210.197 19.3787 209.888 19.5219C209.587 19.6579 209.221 19.7259 208.791 19.7259H206.273ZM207.252 19.0494H208.673C209.067 19.0494 209.372 18.967 209.587 18.8024C209.802 18.6306 209.91 18.3692 209.91 18.0184C209.91 17.6748 209.802 17.4206 209.587 17.256C209.372 17.0913 209.067 17.009 208.673 17.009H207.252V19.0494ZM211.577 19.7259V14.4961H212.557V19.7259H211.577Z" fill="currentColor"/>
<path d="M199.906 19.7259V14.4961H200.885V16.6439H203.618V14.4961H204.597V19.7259H203.618V17.4278H200.885V19.7259H199.906Z" fill="currentColor"/>
<path d="M193.539 19.7259V14.4961H194.518V16.6439H197.251V14.4961H198.23V19.7259H197.251V17.4278H194.518V19.7259H193.539Z" fill="currentColor"/>
<path d="M190.098 19.8225C189.531 19.8225 189.044 19.7152 188.635 19.5004C188.233 19.2784 187.921 18.967 187.699 18.5661C187.476 18.158 187.365 17.6784 187.365 17.1271C187.365 16.583 187.473 16.1069 187.688 15.6988C187.91 15.2907 188.212 14.9722 188.592 14.7431C188.979 14.514 189.42 14.3994 189.915 14.3994C190.396 14.3994 190.804 14.5032 191.142 14.7108C191.486 14.9185 191.748 15.2156 191.927 15.6022C192.113 15.9816 192.207 16.4398 192.207 16.9767V17.3311H188.129V16.7083H191.561L191.378 16.8586C191.378 16.3002 191.256 15.8706 191.012 15.57C190.769 15.2621 190.41 15.1082 189.937 15.1082C189.592 15.1082 189.298 15.1905 189.054 15.3552C188.81 15.5127 188.624 15.7382 188.495 16.0317C188.366 16.3181 188.301 16.651 188.301 17.0304V17.0949C188.301 17.5244 188.369 17.886 188.506 18.1795C188.649 18.4659 188.854 18.6842 189.119 18.8346C189.384 18.9778 189.711 19.0493 190.098 19.0493C190.406 19.0493 190.704 19.0028 190.991 18.9097C191.285 18.8095 191.561 18.6556 191.819 18.448L192.121 19.1245C191.884 19.3393 191.579 19.5111 191.206 19.64C190.84 19.7617 190.471 19.8225 190.098 19.8225Z" fill="currentColor"/>
<path d="M181.188 19.8548L180.844 19.0816C181.088 18.9814 181.288 18.8561 181.446 18.7057C181.611 18.5482 181.74 18.3478 181.834 18.1044C181.927 17.8609 181.995 17.5603 182.038 17.2023C182.081 16.8443 182.103 16.4112 182.103 15.9029V14.4961H185.997V19.7259H185.018V15.28H183.017V15.9244C183.017 16.5257 182.981 17.0519 182.909 17.503C182.845 17.9469 182.741 18.3227 182.597 18.6306C182.454 18.9384 182.264 19.1926 182.027 19.393C181.798 19.5935 181.518 19.7474 181.188 19.8548Z" fill="currentColor"/>
<path d="M172.768 19.7259V14.4961H173.704V18.942H175.802V14.4961H176.738V18.942H178.835V14.4961H179.771V19.7259H172.768Z" fill="currentColor"/>
<path d="M164.803 19.7259V14.4961H165.782V16.3324H167.32C167.994 16.3324 168.504 16.4792 168.848 16.7727C169.192 17.0591 169.364 17.4743 169.364 18.0184C169.364 18.3621 169.282 18.6628 169.117 18.9205C168.959 19.1782 168.726 19.3787 168.418 19.5219C168.116 19.6579 167.751 19.7259 167.32 19.7259H164.803ZM165.782 19.0494H167.202C167.596 19.0494 167.901 18.967 168.116 18.8024C168.332 18.6306 168.439 18.3692 168.439 18.0184C168.439 17.6748 168.332 17.4206 168.116 17.256C167.901 17.0913 167.596 17.009 167.202 17.009H165.782V19.0494ZM170.107 19.7259V14.4961H171.086V19.7259H170.107Z" fill="currentColor"/>
<path d="M157.648 19.7259V14.4961H158.455L160.392 17.9003L162.318 14.4961H163.125V19.7259H162.253V15.6237H162.501L160.629 18.8776H160.144L158.272 15.6237H158.509V19.7259H157.648Z" fill="currentColor"/>
<path d="M153.729 19.8225C153.212 19.8225 152.764 19.7116 152.384 19.4896C152.004 19.2677 151.709 18.9527 151.501 18.5446C151.293 18.1365 151.189 17.6569 151.189 17.1056C151.189 16.5543 151.293 16.0783 151.501 15.6773C151.709 15.2693 152.004 14.9543 152.384 14.7323C152.764 14.5104 153.212 14.3994 153.729 14.3994C154.245 14.3994 154.693 14.5104 155.073 14.7323C155.453 14.9543 155.748 15.2693 155.956 15.6773C156.164 16.0783 156.268 16.5543 156.268 17.1056C156.268 17.6569 156.164 18.1365 155.956 18.5446C155.748 18.9527 155.453 19.2677 155.073 19.4896C154.693 19.7116 154.245 19.8225 153.729 19.8225ZM153.729 19.0493C154.202 19.0493 154.578 18.8847 154.858 18.5554C155.138 18.2189 155.278 17.7356 155.278 17.1056C155.278 16.4756 155.138 15.9959 154.858 15.6666C154.578 15.3373 154.202 15.1726 153.729 15.1726C153.262 15.1726 152.886 15.3373 152.599 15.6666C152.319 15.9959 152.179 16.4756 152.179 17.1056C152.179 17.7356 152.319 18.2189 152.599 18.5554C152.886 18.8847 153.262 19.0493 153.729 19.0493Z" fill="currentColor"/>
<path d="M145.072 21.6589V14.4961H146.03V15.6988H145.922C146.037 15.3051 146.263 14.9901 146.6 14.7538C146.937 14.5175 147.342 14.3994 147.816 14.3994C148.282 14.3994 148.687 14.5104 149.031 14.7323C149.376 14.9471 149.645 15.2585 149.838 15.6666C150.032 16.0675 150.129 16.5472 150.129 17.1056C150.129 17.6569 150.032 18.1401 149.838 18.5554C149.652 18.9634 149.383 19.2784 149.031 19.5004C148.687 19.7152 148.282 19.8225 147.816 19.8225C147.35 19.8225 146.948 19.7044 146.611 19.4682C146.274 19.2319 146.048 18.9205 145.933 18.5339H146.051V21.6589H145.072ZM147.59 19.0493C148.063 19.0493 148.44 18.8847 148.719 18.5554C148.999 18.2189 149.139 17.7356 149.139 17.1056C149.139 16.4756 148.999 15.9959 148.719 15.6666C148.44 15.3373 148.063 15.1726 147.59 15.1726C147.116 15.1726 146.74 15.3373 146.46 15.6666C146.18 15.9959 146.041 16.4756 146.041 17.1056C146.041 17.7356 146.18 18.2189 146.46 18.5554C146.74 18.8847 147.116 19.0493 147.59 19.0493Z" fill="currentColor"/>
<path d="M138.736 19.7259V14.4961H143.395V19.7259H142.416V15.28H139.715V19.7259H138.736Z" fill="currentColor"/>
<path d="M196.18 9.0828C195.613 9.0828 195.126 8.97541 194.717 8.76063C194.315 8.5387 194.003 8.22727 193.781 7.82635C193.558 7.41827 193.447 6.9386 193.447 6.38734C193.447 5.84324 193.555 5.36715 193.77 4.95907C193.992 4.55099 194.294 4.23241 194.674 4.00331C195.061 3.77422 195.502 3.65967 195.997 3.65967C196.478 3.65967 196.886 3.76348 197.224 3.9711C197.568 4.17871 197.83 4.47582 198.009 4.86242C198.195 5.24186 198.289 5.70005 198.289 6.237V6.59138H194.211V5.96853H197.643L197.46 6.11887C197.46 5.56045 197.338 5.13089 197.094 4.8302C196.851 4.52236 196.492 4.36843 196.019 4.36843C195.674 4.36843 195.38 4.45076 195.136 4.61543C194.893 4.77293 194.706 4.99845 194.577 5.29198C194.448 5.57835 194.383 5.91125 194.383 6.29069V6.35513C194.383 6.78468 194.451 7.14622 194.588 7.43975C194.731 7.72612 194.936 7.94448 195.201 8.09482C195.466 8.23801 195.793 8.3096 196.18 8.3096C196.488 8.3096 196.786 8.26306 197.073 8.16999C197.367 8.06976 197.643 7.91584 197.901 7.70822L198.203 8.38477C197.966 8.59955 197.661 8.77137 197.288 8.90024C196.922 9.02195 196.553 9.0828 196.18 9.0828Z" fill="currentColor"/>
<path d="M187.436 8.98618V3.75635H188.329V8.03042H188.049L191.266 3.75635H192.083V8.98618H191.201V4.70137H191.481L188.264 8.98618H187.436Z" fill="currentColor"/>
<path d="M181.068 8.98618V3.75635H182.047V5.90412H184.78V3.75635H185.759V8.98618H184.78V6.68806H182.047V8.98618H181.068Z" fill="currentColor"/>
<path d="M177.625 9.0828C177.059 9.0828 176.571 8.97541 176.162 8.76063C175.76 8.5387 175.448 8.22727 175.226 7.82635C175.004 7.41827 174.893 6.9386 174.893 6.38734C174.893 5.84324 175 5.36715 175.215 4.95907C175.438 4.55099 175.739 4.23241 176.119 4.00331C176.506 3.77422 176.947 3.65967 177.442 3.65967C177.923 3.65967 178.332 3.76348 178.669 3.9711C179.013 4.17871 179.275 4.47582 179.454 4.86242C179.641 5.24186 179.734 5.70005 179.734 6.237V6.59138H175.656V5.96853H179.088L178.906 6.11887C178.906 5.56045 178.784 5.13089 178.54 4.8302C178.296 4.52236 177.937 4.36843 177.464 4.36843C177.12 4.36843 176.826 4.45076 176.582 4.61543C176.338 4.77293 176.151 4.99845 176.022 5.29198C175.893 5.57835 175.829 5.91125 175.829 6.29069V6.35513C175.829 6.78468 175.897 7.14622 176.033 7.43975C176.176 7.72612 176.381 7.94448 176.646 8.09482C176.912 8.23801 177.238 8.3096 177.625 8.3096C177.934 8.3096 178.231 8.26306 178.518 8.16999C178.812 8.06976 179.088 7.91584 179.347 7.70822L179.648 8.38477C179.411 8.59955 179.106 8.77137 178.733 8.90024C178.368 9.02195 177.998 9.0828 177.625 9.0828Z" fill="currentColor"/>
<path d="M168.717 9.11504L168.373 8.34185C168.617 8.24162 168.818 8.11633 168.976 7.96599C169.141 7.80848 169.27 7.60802 169.363 7.36461C169.456 7.12119 169.524 6.82051 169.567 6.46254C169.61 6.10458 169.632 5.67145 169.632 5.16314V3.75635H173.526V8.98618H172.547V4.54029H170.546V5.18462C170.546 5.78599 170.51 6.3122 170.439 6.76323C170.374 7.20711 170.27 7.58297 170.127 7.89081C169.983 8.19866 169.793 8.45281 169.557 8.65327C169.327 8.85373 169.047 9.00766 168.717 9.11504Z" fill="currentColor"/>
<path d="M163.039 8.98618V3.75635H165.653C166.077 3.75635 166.421 3.81004 166.686 3.91743C166.959 4.02482 167.16 4.17874 167.289 4.3792C167.418 4.57966 167.482 4.83023 167.482 5.13092C167.482 5.46025 167.368 5.73946 167.138 5.96856C166.909 6.19765 166.607 6.33368 166.234 6.37663V6.23703C166.536 6.24419 166.79 6.30504 166.998 6.41959C167.213 6.53414 167.375 6.68806 167.482 6.88136C167.597 7.0675 167.655 7.28586 167.655 7.53643C167.655 7.9803 167.49 8.33469 167.16 8.59958C166.83 8.85731 166.356 8.98618 165.739 8.98618H163.039ZM163.964 8.34185H165.686C166.03 8.34185 166.292 8.27025 166.471 8.12707C166.658 7.97672 166.751 7.76553 166.751 7.49348C166.751 7.21426 166.658 7.00307 166.471 6.85988C166.292 6.7167 166.03 6.6451 165.686 6.6451H163.964V8.34185ZM163.964 6.00077H165.6C165.908 6.00077 166.145 5.92918 166.31 5.78599C166.482 5.64281 166.568 5.44593 166.568 5.19536C166.568 4.93762 166.482 4.74074 166.31 4.60472C166.145 4.46869 165.908 4.40068 165.6 4.40068H163.964V6.00077Z" fill="currentColor"/>
<path d="M158.854 9.0828C158.496 9.0828 158.169 9.01121 157.875 8.86802C157.589 8.72484 157.363 8.53154 157.198 8.28812C157.04 8.04471 156.961 7.77266 156.961 7.47197C156.961 7.08537 157.058 6.7811 157.251 6.55916C157.445 6.33723 157.771 6.17972 158.23 6.08665C158.69 5.98642 159.306 5.93631 160.081 5.93631H160.587V6.55916H160.102C159.686 6.55916 159.339 6.57348 159.059 6.60212C158.779 6.63076 158.557 6.67729 158.392 6.74172C158.227 6.80616 158.109 6.89565 158.037 7.0102C157.965 7.11758 157.929 7.25361 157.929 7.41827C157.929 7.69748 158.026 7.92658 158.22 8.10556C158.421 8.28454 158.693 8.37403 159.037 8.37403C159.31 8.37403 159.55 8.3096 159.758 8.18073C159.966 8.04471 160.131 7.86573 160.253 7.64379C160.375 7.41469 160.436 7.15338 160.436 6.85985V5.62488C160.436 5.20249 160.35 4.89822 160.178 4.71208C160.006 4.51878 159.715 4.42213 159.306 4.42213C159.005 4.42213 158.704 4.46866 158.403 4.56173C158.109 4.6548 157.804 4.79799 157.488 4.99129L157.176 4.29326C157.363 4.16439 157.574 4.05343 157.811 3.96036C158.055 3.86013 158.306 3.78495 158.564 3.73484C158.829 3.68473 159.084 3.65967 159.328 3.65967C159.794 3.65967 160.178 3.73484 160.479 3.88518C160.78 4.02837 161.006 4.25389 161.157 4.56173C161.307 4.86242 161.383 5.24902 161.383 5.72153V8.98615H160.458V7.79413H160.554C160.497 8.05903 160.389 8.28812 160.232 8.48142C160.074 8.67472 159.877 8.82507 159.64 8.93245C159.41 9.03268 159.149 9.0828 158.854 9.0828Z" fill="currentColor"/>
<path d="M150.756 10.9191V3.75632H151.713V4.95907H151.606C151.721 4.56531 151.946 4.25031 152.284 4.01405C152.621 3.7778 153.026 3.65967 153.499 3.65967C153.966 3.65967 154.371 3.77064 154.715 3.99257C155.059 4.20735 155.328 4.51878 155.522 4.92685C155.716 5.32777 155.812 5.80744 155.812 6.36586C155.812 6.91713 155.716 7.40038 155.522 7.81561C155.335 8.22369 155.067 8.5387 154.715 8.76063C154.371 8.97541 153.966 9.0828 153.499 9.0828C153.033 9.0828 152.631 8.96467 152.294 8.72842C151.957 8.49216 151.731 8.18073 151.617 7.79413H151.735V10.9191H150.756ZM153.273 8.3096C153.747 8.3096 154.123 8.14494 154.403 7.81561C154.683 7.47913 154.823 6.99588 154.823 6.36586C154.823 5.73585 154.683 5.25618 154.403 4.92685C154.123 4.59753 153.747 4.43287 153.273 4.43287C152.8 4.43287 152.423 4.59753 152.144 4.92685C151.864 5.25618 151.724 5.73585 151.724 6.36586C151.724 6.99588 151.864 7.47913 152.144 7.81561C152.423 8.14494 152.8 8.3096 153.273 8.3096Z" fill="currentColor"/>
<path d="M144.422 8.98618V3.75635H149.08V8.98618H148.101V4.54029H145.401V8.98618H144.422Z" fill="currentColor"/>
<path d="M139.318 10.9192L140.319 8.67475V9.08283L138.027 3.75635H139.082L140.9 8.22372H140.599L142.449 3.75635H143.46L140.34 10.9192H139.318Z" fill="currentColor"/>
</svg>
