<svg width="96" height="160" viewBox="0 0 96 160" fill="none" xmlns="http://www.w3.org/2000/svg">
<path d="M0 61.0158V37.2874L58.6667 0H96V23.7283L37.3333 61.0158H0Z" fill="currentColor"/>
<path d="M0.400391 112.35V79.4302H30.7518V112.35H22.1732V86.4344H8.97899V112.35H0.400391Z" fill="currentColor"/>
<path d="M35.1699 112.35V79.4302H43.7485V92.5981H47.7115L46.4993 93.4386L54.8447 79.4302H64.1227L54.1454 95.213L50.6953 92.925C52.1562 93.174 53.4461 93.6098 54.565 94.2324C55.684 94.855 56.6786 95.6644 57.5489 96.6605C58.4502 97.6567 59.2428 98.8708 59.9266 100.303L65.7545 112.35H56.5232L52.3271 103.104C51.7366 101.828 51.0061 100.925 50.1358 100.396C49.2656 99.8669 48.1466 99.6023 46.779 99.6023H43.7485V112.35H35.1699Z" fill="currentColor"/>
<path d="M82.3105 113.043C77.7514 113.043 71.5416 112.167 67.1992 110.498L69.016 103.986C72.1075 105.448 78.1292 105.76 81.5162 105.76C83.6342 105.76 85.1915 105.455 86.1882 104.844C87.1848 104.2 87.6832 103.22 87.6832 101.901C87.6832 100.808 87.3094 100.004 86.5619 99.4897C85.8456 98.943 84.6931 98.6697 83.1047 98.6697H74.5966V91.8688H82.217C83.8055 91.8688 84.9579 91.6115 85.6742 91.0971C86.3906 90.5826 86.7488 89.7787 86.7488 88.6854C86.7488 87.6564 86.3439 86.8364 85.5341 86.2255C84.7554 85.5824 83.4629 85.2608 81.6564 85.2608C78.6187 85.2608 72.9563 85.5849 69.6701 86.9864L67.8066 80.4749C72.4319 78.5743 78.3257 77.9775 82.7309 77.9775C85.5029 77.9775 87.8078 78.3795 89.6454 79.1834C91.5141 79.9873 92.9001 81.0966 93.8034 82.5115C94.7066 83.9263 95.1582 85.518 95.1582 87.2866C95.1582 89.2803 94.5976 90.9845 93.4764 92.3994C92.3862 93.8142 90.8912 94.7789 88.9913 95.2934V94.5216C91.2338 94.9397 92.9624 95.8722 94.1771 97.3192C95.3918 98.7662 95.9992 100.615 95.9992 102.866C95.9992 104.828 95.5008 106.58 94.5042 108.123C93.5386 109.667 92.0436 110.873 90.0191 111.741C87.9946 112.609 85.4251 113.043 82.3105 113.043Z" fill="currentColor"/>
<path d="M53.1973 157.239V151.608H54.1554V156.21H53.8553L57.3068 151.608H58.1842V157.239H57.2376V152.626H57.5377L54.0861 157.239H53.1973Z" fill="currentColor"/>
<path d="M45.5195 157.239V151.608H46.3853L48.4632 155.273L50.5295 151.608H51.3953V157.239H50.4603V152.822H50.7258L48.7172 156.326H48.1977L46.1891 152.822H46.443V157.239H45.5195Z" fill="currentColor"/>
<path d="M41.0297 157.343C40.645 157.343 40.2948 157.265 39.9793 157.111C39.6714 156.957 39.429 156.749 39.252 156.487C39.0827 156.225 38.998 155.932 38.998 155.608C38.998 155.192 39.1019 154.864 39.3097 154.626C39.5175 154.387 39.8677 154.217 40.3602 154.117C40.8527 154.009 41.5146 153.955 42.3457 153.955H42.8883V154.626H42.3688C41.9225 154.626 41.5492 154.641 41.2491 154.672C40.9489 154.703 40.7104 154.753 40.5334 154.822C40.3564 154.891 40.2294 154.988 40.1524 155.111C40.0755 155.227 40.037 155.373 40.037 155.55C40.037 155.851 40.1409 156.098 40.3487 156.29C40.5642 156.483 40.8566 156.579 41.226 156.579C41.5184 156.579 41.7762 156.51 41.9994 156.371C42.2226 156.225 42.3996 156.032 42.5304 155.793C42.6613 155.547 42.7267 155.265 42.7267 154.949V153.62C42.7267 153.165 42.6343 152.837 42.4496 152.637C42.2649 152.429 41.9533 152.325 41.5146 152.325C41.1914 152.325 40.8681 152.375 40.5449 152.475C40.2294 152.575 39.9023 152.729 39.5637 152.938L39.2289 152.186C39.429 152.047 39.656 151.928 39.91 151.828C40.1717 151.72 40.441 151.639 40.7181 151.585C41.0028 151.531 41.276 151.504 41.5377 151.504C42.0379 151.504 42.4496 151.585 42.7729 151.747C43.0961 151.901 43.3385 152.144 43.5001 152.475C43.6617 152.799 43.7425 153.215 43.7425 153.724V157.238H42.7498V155.955H42.8537C42.7921 156.24 42.6767 156.487 42.5074 156.695C42.338 156.903 42.1264 157.065 41.8724 157.181C41.6262 157.289 41.3453 157.343 41.0297 157.343Z" fill="currentColor"/>
<path d="M35.2213 157.239V152.452H33.2012V151.608H38.292V152.452H36.2718V157.239H35.2213Z" fill="currentColor"/>
<path d="M27.877 157.239V151.608H28.9274V153.921H29.9202L31.721 151.608H32.8639L30.7629 154.36L30.4974 154.036C30.7052 154.059 30.8899 154.113 31.0515 154.198C31.2131 154.283 31.367 154.41 31.5132 154.58C31.6595 154.749 31.8172 154.977 31.9865 155.262L33.1409 157.239H32.0096L31.0169 155.551C30.8937 155.335 30.7744 155.173 30.659 155.065C30.5436 154.95 30.4166 154.869 30.2781 154.823C30.1395 154.776 29.9702 154.753 29.7701 154.753H28.9274V157.239H27.877Z" fill="currentColor"/>
<path d="M24.1841 157.343C23.5761 157.343 23.0528 157.227 22.6141 156.996C22.1832 156.757 21.8484 156.421 21.6098 155.99C21.3712 155.55 21.252 155.034 21.252 154.441C21.252 153.855 21.3674 153.342 21.5983 152.903C21.8368 152.464 22.1601 152.121 22.5679 151.874C22.9835 151.627 23.4568 151.504 23.9878 151.504C24.5035 151.504 24.9421 151.616 25.3038 151.839C25.6732 152.063 25.9541 152.383 26.1465 152.799C26.3466 153.207 26.4467 153.701 26.4467 154.279V154.66H22.0716V153.99H25.754L25.5578 154.152C25.5578 153.55 25.427 153.088 25.1653 152.764C24.9036 152.433 24.5188 152.267 24.0109 152.267C23.6415 152.267 23.326 152.356 23.0643 152.533C22.8027 152.702 22.6026 152.945 22.464 153.261C22.3255 153.57 22.2563 153.928 22.2563 154.337V154.406C22.2563 154.868 22.3294 155.258 22.4756 155.574C22.6295 155.882 22.8488 156.117 23.1336 156.279C23.4183 156.433 23.7685 156.51 24.1841 156.51C24.515 156.51 24.8344 156.46 25.1422 156.36C25.4577 156.252 25.754 156.086 26.0311 155.863L26.3543 156.591C26.1003 156.822 25.7733 157.007 25.3731 157.146C24.9806 157.277 24.5843 157.343 24.1841 157.343Z" fill="currentColor"/>
<path d="M17.3825 157.343C16.8284 157.343 16.3474 157.223 15.9396 156.984C15.5317 156.745 15.2162 156.406 14.993 155.967C14.7698 155.527 14.6582 155.011 14.6582 154.417C14.6582 153.824 14.7698 153.311 14.993 152.88C15.2162 152.44 15.5317 152.101 15.9396 151.862C16.3474 151.623 16.8284 151.504 17.3825 151.504C17.9366 151.504 18.4176 151.623 18.8255 151.862C19.2334 152.101 19.5489 152.44 19.7721 152.88C19.9953 153.311 20.1069 153.824 20.1069 154.417C20.1069 155.011 19.9953 155.527 19.7721 155.967C19.5489 156.406 19.2334 156.745 18.8255 156.984C18.4176 157.223 17.9366 157.343 17.3825 157.343ZM17.3825 156.51C17.8905 156.51 18.2945 156.333 18.5946 155.978C18.8948 155.616 19.0448 155.096 19.0448 154.417C19.0448 153.739 18.8948 153.223 18.5946 152.868C18.2945 152.514 17.8905 152.336 17.3825 152.336C16.8823 152.336 16.4783 152.514 16.1704 152.868C15.8703 153.223 15.7202 153.739 15.7202 154.417C15.7202 155.096 15.8703 155.616 16.1704 155.978C16.4783 156.333 16.8823 156.51 17.3825 156.51Z" fill="currentColor"/>
<path d="M8.09375 159.32V151.608H9.12115V152.903H9.00571C9.12884 152.479 9.37126 152.14 9.73297 151.885C10.0947 151.631 10.5295 151.504 11.0374 151.504C11.5376 151.504 11.9725 151.623 12.3419 151.862C12.7113 152.094 12.9999 152.429 13.2076 152.868C13.4154 153.3 13.5193 153.816 13.5193 154.417C13.5193 155.011 13.4154 155.531 13.2076 155.978C13.0076 156.418 12.719 156.757 12.3419 156.996C11.9725 157.227 11.5376 157.343 11.0374 157.343C10.5372 157.343 10.1062 157.215 9.74451 156.961C9.38281 156.707 9.14039 156.371 9.01725 155.955H9.14423V159.32H8.09375ZM10.795 156.51C11.3029 156.51 11.707 156.333 12.0071 155.978C12.3072 155.616 12.4573 155.096 12.4573 154.417C12.4573 153.739 12.3072 153.223 12.0071 152.868C11.707 152.514 11.3029 152.336 10.795 152.336C10.2871 152.336 9.88304 152.514 9.5829 152.868C9.28276 153.223 9.13269 153.739 9.13269 154.417C9.13269 155.096 9.28276 155.616 9.5829 155.978C9.88304 156.333 10.2871 156.51 10.795 156.51Z" fill="currentColor"/>
<path d="M1.29492 157.239V151.608H6.29338V157.239H5.2429V152.452H2.34541V157.239H1.29492Z" fill="currentColor"/>
<path d="M89.9824 145.701V140.07H90.9406V144.672H90.6404L94.092 140.07H94.9693V145.701H94.0227V141.088H94.3229L90.8713 145.701H89.9824Z" fill="currentColor"/>
<path d="M82.3047 145.701V140.07H83.1705L85.2483 143.735L87.3147 140.07H88.1805V145.701H87.2454V141.284H87.5109L85.5023 144.787H84.9828L82.9742 141.284H83.2282V145.701H82.3047Z" fill="currentColor"/>
<path d="M73.7598 145.701V140.07H74.8102V142.047H76.461C77.1844 142.047 77.7308 142.205 78.1002 142.521C78.4696 142.83 78.6543 143.277 78.6543 143.863C78.6543 144.232 78.5658 144.556 78.3888 144.834C78.2195 145.111 77.9694 145.327 77.6385 145.481C77.3152 145.628 76.9228 145.701 76.461 145.701H73.7598ZM74.8102 144.972H76.334C76.7573 144.972 77.0844 144.884 77.3152 144.707C77.5461 144.522 77.6616 144.24 77.6616 143.863C77.6616 143.493 77.5461 143.219 77.3152 143.042C77.0844 142.864 76.7573 142.776 76.334 142.776H74.8102V144.972ZM79.4508 145.701V140.07H80.5013V145.701H79.4508Z" fill="currentColor"/>
<path d="M66.9277 145.701V140.07H67.9782V142.383H70.9103V140.07H71.9608V145.701H70.9103V143.227H67.9782V145.701H66.9277Z" fill="currentColor"/>
<path d="M60.0957 145.701V140.07H61.1462V142.383H64.0783V140.07H65.1288V145.701H64.0783V143.227H61.1462V145.701H60.0957Z" fill="currentColor"/>
<path d="M56.4028 145.804C55.7948 145.804 55.2715 145.689 54.8329 145.458C54.4019 145.219 54.0671 144.883 53.8286 144.452C53.59 144.012 53.4707 143.496 53.4707 142.902C53.4707 142.317 53.5861 141.804 53.817 141.365C54.0556 140.925 54.3788 140.582 54.7867 140.336C55.2023 140.089 55.6756 139.966 56.2066 139.966C56.7222 139.966 57.1609 140.078 57.5226 140.301C57.892 140.525 58.1729 140.845 58.3653 141.261C58.5654 141.669 58.6654 142.163 58.6654 142.741V143.122H54.2903V142.452H57.9728L57.7765 142.613C57.7765 142.012 57.6457 141.55 57.384 141.226C57.1224 140.895 56.7376 140.729 56.2297 140.729C55.8603 140.729 55.5447 140.818 55.2831 140.995C55.0214 141.164 54.8213 141.407 54.6828 141.723C54.5443 142.031 54.475 142.39 54.475 142.798V142.868C54.475 143.33 54.5481 143.719 54.6943 144.036C54.8483 144.344 55.0676 144.579 55.3523 144.741C55.6371 144.895 55.9872 144.972 56.4028 144.972C56.7337 144.972 57.0531 144.922 57.361 144.822C57.6765 144.714 57.9728 144.548 58.2498 144.325L58.573 145.053C58.3191 145.284 57.992 145.469 57.5918 145.608C57.1993 145.739 56.803 145.804 56.4028 145.804Z" fill="currentColor"/>
<path d="M46.844 145.84L46.4746 145.007C46.7363 144.899 46.9518 144.764 47.1211 144.602C47.2981 144.433 47.4366 144.217 47.5366 143.955C47.6367 143.693 47.7098 143.369 47.756 142.984C47.8021 142.598 47.8252 142.132 47.8252 141.585V140.07H52.0041V145.701H50.9536V140.914H48.8065V141.608C48.8065 142.255 48.768 142.822 48.691 143.308C48.6218 143.785 48.5102 144.19 48.3562 144.522C48.2023 144.853 47.9984 145.127 47.7444 145.342C47.4982 145.558 47.198 145.724 46.844 145.84Z" fill="currentColor"/>
<path d="M37.8105 145.701V140.07H38.8149V144.857H41.0659V140.07H42.0702V144.857H44.3212V140.07H45.3255V145.701H37.8105Z" fill="currentColor"/>
<path d="M29.2656 145.701V140.07H30.3161V142.047H31.9669C32.6903 142.047 33.2367 142.205 33.6061 142.521C33.9755 142.83 34.1602 143.277 34.1602 143.863C34.1602 144.232 34.0717 144.556 33.8947 144.834C33.7254 145.111 33.4753 145.327 33.1443 145.481C32.8211 145.628 32.4286 145.701 31.9669 145.701H29.2656ZM30.3161 144.972H31.8399C32.2632 144.972 32.5902 144.884 32.8211 144.707C33.052 144.522 33.1674 144.24 33.1674 143.863C33.1674 143.493 33.052 143.219 32.8211 143.042C32.5902 142.864 32.2632 142.776 31.8399 142.776H30.3161V144.972ZM34.9567 145.701V140.07H36.0072V145.701H34.9567Z" fill="currentColor"/>
<path d="M21.5879 145.701V140.07H22.4537L24.5316 143.735L26.5979 140.07H27.4637V145.701H26.5286V141.284H26.7941L24.7855 144.787H24.266L22.2574 141.284H22.5114V145.701H21.5879Z" fill="currentColor"/>
<path d="M17.3825 145.804C16.8284 145.804 16.3474 145.685 15.9396 145.446C15.5317 145.207 15.2162 144.868 14.993 144.429C14.7698 143.989 14.6582 143.473 14.6582 142.879C14.6582 142.286 14.7698 141.773 14.993 141.342C15.2162 140.902 15.5317 140.563 15.9396 140.324C16.3474 140.085 16.8284 139.966 17.3825 139.966C17.9366 139.966 18.4176 140.085 18.8255 140.324C19.2334 140.563 19.5489 140.902 19.7721 141.342C19.9953 141.773 20.1069 142.286 20.1069 142.879C20.1069 143.473 19.9953 143.989 19.7721 144.429C19.5489 144.868 19.2334 145.207 18.8255 145.446C18.4176 145.685 17.9366 145.804 17.3825 145.804ZM17.3825 144.972C17.8905 144.972 18.2945 144.795 18.5946 144.44C18.8948 144.078 19.0448 143.558 19.0448 142.879C19.0448 142.201 18.8948 141.685 18.5946 141.33C18.2945 140.976 17.8905 140.798 17.3825 140.798C16.8823 140.798 16.4783 140.976 16.1704 141.33C15.8703 141.685 15.7202 142.201 15.7202 142.879C15.7202 143.558 15.8703 144.078 16.1704 144.44C16.4783 144.795 16.8823 144.972 17.3825 144.972Z" fill="currentColor"/>
<path d="M8.09375 147.781V140.07H9.12115V141.365H9.00571C9.12884 140.941 9.37126 140.602 9.73297 140.347C10.0947 140.093 10.5295 139.966 11.0374 139.966C11.5376 139.966 11.9725 140.085 12.3419 140.324C12.7113 140.555 12.9999 140.891 13.2076 141.33C13.4154 141.762 13.5193 142.278 13.5193 142.879C13.5193 143.473 13.4154 143.993 13.2076 144.44C13.0076 144.88 12.719 145.219 12.3419 145.458C11.9725 145.689 11.5376 145.804 11.0374 145.804C10.5372 145.804 10.1062 145.677 9.74451 145.423C9.38281 145.169 9.14039 144.833 9.01725 144.417H9.14423V147.781H8.09375ZM10.795 144.972C11.3029 144.972 11.707 144.795 12.0071 144.44C12.3072 144.078 12.4573 143.558 12.4573 142.879C12.4573 142.201 12.3072 141.685 12.0071 141.33C11.707 140.976 11.3029 140.798 10.795 140.798C10.2871 140.798 9.88304 140.976 9.5829 141.33C9.28276 141.685 9.13269 142.201 9.13269 142.879C9.13269 143.558 9.28276 144.078 9.5829 144.44C9.88304 144.795 10.2871 144.972 10.795 144.972Z" fill="currentColor"/>
<path d="M1.29492 145.701V140.07H6.29338V145.701H5.2429V140.914H2.34541V145.701H1.29492Z" fill="currentColor"/>
<path d="M62.9302 134.267C62.3222 134.267 61.7989 134.152 61.3602 133.92C60.9292 133.682 60.5945 133.346 60.3559 132.915C60.1173 132.475 59.998 131.959 59.998 131.365C59.998 130.78 60.1135 130.267 60.3444 129.828C60.5829 129.388 60.9062 129.045 61.314 128.799C61.7296 128.552 62.2029 128.429 62.7339 128.429C63.2495 128.429 63.6882 128.54 64.0499 128.764C64.4193 128.988 64.7002 129.307 64.8926 129.724C65.0927 130.132 65.1927 130.625 65.1927 131.203V131.585H60.8177V130.914H64.5001L64.3039 131.076C64.3039 130.475 64.173 130.013 63.9114 129.689C63.6497 129.357 63.2649 129.192 62.757 129.192C62.3876 129.192 62.0721 129.28 61.8104 129.458C61.5488 129.627 61.3487 129.87 61.2101 130.186C61.0716 130.494 61.0024 130.853 61.0024 131.261V131.331C61.0024 131.793 61.0755 132.182 61.2217 132.498C61.3756 132.807 61.5949 133.042 61.8797 133.204C62.1644 133.358 62.5146 133.435 62.9302 133.435C63.2611 133.435 63.5805 133.385 63.8883 133.285C64.2038 133.177 64.5001 133.011 64.7772 132.787L65.1004 133.516C64.8464 133.747 64.5194 133.932 64.1192 134.071C63.7267 134.202 63.3303 134.267 62.9302 134.267Z" fill="currentColor"/>
<path d="M53.5469 134.163V128.533H54.505V133.134H54.2049L57.6565 128.533H58.5338V134.163H57.5872V129.55H57.8873L54.4357 134.163H53.5469Z" fill="currentColor"/>
<path d="M46.7148 134.163V128.533H47.7653V130.845H50.6974V128.533H51.7479V134.163H50.6974V131.689H47.7653V134.163H46.7148Z" fill="currentColor"/>
<path d="M43.022 134.267C42.414 134.267 41.8907 134.152 41.452 133.92C41.021 133.682 40.6863 133.346 40.4477 132.915C40.2091 132.475 40.0898 131.959 40.0898 131.365C40.0898 130.78 40.2053 130.267 40.4362 129.828C40.6747 129.388 40.998 129.045 41.4058 128.799C41.8214 128.552 42.2947 128.429 42.8257 128.429C43.3413 128.429 43.78 128.54 44.1417 128.764C44.5111 128.988 44.792 129.307 44.9844 129.724C45.1845 130.132 45.2845 130.625 45.2845 131.203V131.585H40.9095V130.914H44.5919L44.3957 131.076C44.3957 130.475 44.2648 130.013 44.0032 129.689C43.7415 129.357 43.3567 129.192 42.8488 129.192C42.4794 129.192 42.1639 129.28 41.9022 129.458C41.6406 129.627 41.4405 129.87 41.3019 130.186C41.1634 130.494 41.0942 130.853 41.0942 131.261V131.331C41.0942 131.793 41.1673 132.182 41.3135 132.498C41.4674 132.807 41.6867 133.042 41.9715 133.204C42.2562 133.358 42.6064 133.435 43.022 133.435C43.3529 133.435 43.6723 133.385 43.9801 133.285C44.2956 133.177 44.5919 133.011 44.869 132.787L45.1922 133.516C44.9382 133.747 44.6112 133.932 44.211 134.071C43.8185 134.202 43.4221 134.267 43.022 134.267Z" fill="currentColor"/>
<path d="M33.4632 134.302L33.0938 133.47C33.3554 133.362 33.5709 133.227 33.7402 133.065C33.9172 132.895 34.0557 132.679 34.1558 132.417C34.2558 132.155 34.3289 131.832 34.3751 131.446C34.4213 131.061 34.4444 130.595 34.4444 130.047V128.533H38.6232V134.163H37.5727V129.377H35.4256V130.07C35.4256 130.718 35.3871 131.284 35.3102 131.77C35.2409 132.248 35.1293 132.652 34.9754 132.984C34.8215 133.315 34.6175 133.589 34.3636 133.805C34.1173 134.021 33.8172 134.186 33.4632 134.302Z" fill="currentColor"/>
<path d="M27.3711 134.163V128.533H30.1762C30.6303 128.533 30.9997 128.591 31.2844 128.706C31.5769 128.822 31.7924 128.987 31.9309 129.203C32.0694 129.419 32.1387 129.689 32.1387 130.013C32.1387 130.367 32.0155 130.668 31.7693 130.914C31.523 131.161 31.1998 131.307 30.7996 131.354V131.203C31.1228 131.211 31.396 131.277 31.6192 131.4C31.8501 131.523 32.0232 131.689 32.1387 131.897C32.2618 132.098 32.3234 132.333 32.3234 132.602C32.3234 133.08 32.1464 133.462 31.7924 133.747C31.4384 134.024 30.9304 134.163 30.2686 134.163H27.3711ZM28.3639 133.47H30.2109C30.5803 133.47 30.8612 133.392 31.0536 133.238C31.2537 133.076 31.3537 132.849 31.3537 132.556C31.3537 132.256 31.2537 132.028 31.0536 131.874C30.8612 131.72 30.5803 131.643 30.2109 131.643H28.3639V133.47ZM28.3639 130.949H30.1185C30.4494 130.949 30.7034 130.872 30.8804 130.718C31.0651 130.564 31.1575 130.352 31.1575 130.082C31.1575 129.804 31.0651 129.593 30.8804 129.446C30.7034 129.3 30.4494 129.226 30.1185 129.226H28.3639V130.949Z" fill="currentColor"/>
<path d="M22.8794 134.267C22.4946 134.267 22.1444 134.19 21.8289 134.036C21.521 133.882 21.2786 133.674 21.1016 133.412C20.9323 133.15 20.8477 132.857 20.8477 132.533C20.8477 132.117 20.9516 131.789 21.1593 131.55C21.3671 131.311 21.7173 131.142 22.2098 131.042C22.7024 130.934 23.3642 130.88 24.1954 130.88H24.7379V131.55H24.2184C23.7721 131.55 23.3988 131.566 23.0987 131.597C22.7986 131.627 22.56 131.678 22.383 131.747C22.206 131.816 22.079 131.913 22.002 132.036C21.9251 132.152 21.8866 132.298 21.8866 132.475C21.8866 132.776 21.9905 133.023 22.1983 133.215C22.4138 133.408 22.7062 133.504 23.0756 133.504C23.368 133.504 23.6259 133.435 23.849 133.296C24.0722 133.15 24.2492 132.957 24.3801 132.718C24.5109 132.471 24.5763 132.19 24.5763 131.874V130.544C24.5763 130.09 24.4839 129.762 24.2992 129.562C24.1145 129.354 23.8029 129.25 23.3642 129.25C23.041 129.25 22.7177 129.3 22.3945 129.4C22.079 129.5 21.7519 129.654 21.4133 129.862L21.0785 129.111C21.2786 128.972 21.5057 128.853 21.7596 128.752C22.0213 128.645 22.2906 128.564 22.5677 128.51C22.8524 128.456 23.1256 128.429 23.3873 128.429C23.8875 128.429 24.2992 128.51 24.6225 128.672C24.9457 128.826 25.1881 129.068 25.3497 129.4C25.5113 129.724 25.5921 130.14 25.5921 130.649V134.163H24.5994V132.88H24.7033C24.6417 133.165 24.5263 133.412 24.357 133.62C24.1877 133.828 23.976 133.99 23.7221 134.105C23.4758 134.213 23.1949 134.267 22.8794 134.267Z" fill="currentColor"/>
<path d="M14.1914 136.244V128.533H15.2188V129.828H15.1034C15.2265 129.404 15.4689 129.065 15.8306 128.81C16.1923 128.556 16.6271 128.429 17.1351 128.429C17.6353 128.429 18.0701 128.548 18.4395 128.787C18.8089 129.018 19.0975 129.354 19.3053 129.793C19.5131 130.225 19.617 130.741 19.617 131.342C19.617 131.936 19.5131 132.456 19.3053 132.903C19.1052 133.342 18.8166 133.682 18.4395 133.92C18.0701 134.152 17.6353 134.267 17.1351 134.267C16.6348 134.267 16.2039 134.14 15.8422 133.886C15.4805 133.631 15.238 133.296 15.1149 132.88H15.2419V136.244H14.1914ZM16.8927 133.435C17.4006 133.435 17.8046 133.258 18.1047 132.903C18.4049 132.541 18.555 132.021 18.555 131.342C18.555 130.664 18.4049 130.148 18.1047 129.793C17.8046 129.438 17.4006 129.261 16.8927 129.261C16.3847 129.261 15.9807 129.438 15.6806 129.793C15.3804 130.148 15.2303 130.664 15.2303 131.342C15.2303 132.021 15.3804 132.541 15.6806 132.903C15.9807 133.258 16.3847 133.435 16.8927 133.435Z" fill="currentColor"/>
<path d="M7.39453 134.163V128.533H12.393V134.163H11.3425V129.377H8.44502V134.163H7.39453Z" fill="currentColor"/>
<path d="M1.91846 136.244L2.99203 133.828V134.267L0.533203 128.533H1.66449L3.61539 133.342H3.29217L5.2777 128.533H6.36281L3.01512 136.244H1.91846Z" fill="currentColor"/>
</svg>
