<svg viewBox="0 0 96 113" fill="none" xmlns="http://www.w3.org/2000/svg">
<path d="M0 61.0158V37.2874L58.6667 0H96V23.7283L37.3333 61.0158H0Z" fill="#ffffff"/>
<path d="M0.400391 112.35V79.4302H30.7518V112.35H22.1732V86.4344H8.97899V112.35H0.400391Z" fill="#ffffff"/>
<path d="M35.1699 112.35V79.4302H43.7485V92.5981H47.7115L46.4993 93.4386L54.8447 79.4302H64.1227L54.1454 95.213L50.6953 92.925C52.1562 93.174 53.4461 93.6098 54.565 94.2324C55.684 94.855 56.6786 95.6644 57.5489 96.6605C58.4502 97.6567 59.2428 98.8708 59.9266 100.303L65.7545 112.35H56.5232L52.3271 103.104C51.7366 101.828 51.0061 100.925 50.1358 100.396C49.2656 99.8669 48.1466 99.6023 46.779 99.6023H43.7485V112.35H35.1699Z" fill="#ffffff"/>
<path d="M82.3105 113.043C77.7514 113.043 71.5416 112.167 67.1992 110.498L69.016 103.986C72.1075 105.448 78.1292 105.76 81.5162 105.76C83.6342 105.76 85.1915 105.455 86.1882 104.844C87.1848 104.2 87.6832 103.22 87.6832 101.901C87.6832 100.808 87.3094 100.004 86.5619 99.4897C85.8456 98.943 84.6931 98.6697 83.1047 98.6697H74.5966V91.8688H82.217C83.8055 91.8688 84.9579 91.6115 85.6742 91.0971C86.3906 90.5826 86.7488 89.7787 86.7488 88.6854C86.7488 87.6564 86.3439 86.8364 85.5341 86.2255C84.7554 85.5824 83.4629 85.2608 81.6564 85.2608C78.6187 85.2608 72.9563 85.5849 69.6701 86.9864L67.8066 80.4749C72.4319 78.5743 78.3257 77.9775 82.7309 77.9775C85.5029 77.9775 87.8078 78.3795 89.6454 79.1834C91.5141 79.9873 92.9001 81.0966 93.8034 82.5115C94.7066 83.9263 95.1582 85.518 95.1582 87.2866C95.1582 89.2803 94.5976 90.9845 93.4764 92.3994C92.3862 93.8142 90.8912 94.7789 88.9913 95.2934V94.5216C91.2338 94.9397 92.9624 95.8722 94.1771 97.3192C95.3918 98.7662 95.9992 100.615 95.9992 102.866C95.9992 104.828 95.5008 106.58 94.5042 108.123C93.5386 109.667 92.0436 110.873 90.0191 111.741C87.9946 112.609 85.4251 113.043 82.3105 113.043Z" fill="#ffffff"/>
</svg>
